<svg xmlns="http://www.w3.org/2000/svg" xmlns:xlink="http://www.w3.org/1999/xlink" width="100" zoomAndPan="magnify" viewBox="0 0 75 74.999997" height="100" preserveAspectRatio="xMidYMid meet" version="1.0"><path fill="#7e32df" d="M 74.328125 47.125 C 73.601562 42.035156 69.011719 39.570312 64.476562 42.035156 C 62.183594 43.039062 59.945312 46.0625 61.679688 48.359375 C 61.285156 47.183594 61.511719 45.953125 62.292969 45.222656 C 63.695312 43.710938 66.210938 43.097656 68.171875 43.488281 C 71.191406 44.273438 71.082031 47.855469 70.464844 50.652344 C 69.625 54.683594 65.09375 63.46875 60.222656 60.113281 C 58.097656 58.320312 57.59375 53.5625 57.3125 50.597656 C 56.304688 40.632812 61.285156 31.121094 61.007812 20.652344 C 61.007812 14.71875 56.808594 6.773438 49.867188 10.636719 C 47.125 12.425781 44.71875 15.113281 43.265625 18.191406 C 39.625 6.492188 28.042969 5.765625 23.675781 18.695312 C 23.285156 16.960938 22.722656 15.335938 21.605469 13.546875 C 17.910156 7.78125 8.285156 7.109375 4.308594 12.761719 C 0 18.636719 0.335938 28.601562 6.550781 32.574219 C 1.847656 27.035156 5.316406 11.363281 14.160156 15 C 17.238281 16.230469 17.519531 19.925781 18.191406 22.890625 C 18.695312 25.132812 18.972656 27.144531 18.917969 29.550781 C 18.582031 39.289062 16.792969 48.917969 15.222656 58.710938 C 18.863281 52.949219 21.214844 46.566406 23.003906 40.019531 C 24.402344 34.535156 25.523438 28.710938 24.515625 22.949219 C 26.976562 18.972656 30.335938 14.273438 33.414062 14.609375 C 35.933594 15.558594 37.109375 18.300781 37.722656 21.4375 C 39.347656 31.34375 37.890625 42.089844 35.820312 52.21875 C 41.082031 45.671875 43.601562 37.21875 44.273438 28.9375 C 44.550781 25.464844 44.273438 22.445312 43.710938 19.871094 C 45.617188 17.070312 48.414062 14.71875 51.210938 13.546875 C 55.410156 11.921875 56.082031 17.519531 55.96875 20.652344 C 55.1875 30.617188 49.867188 40.464844 51.15625 51.15625 C 51.714844 56.027344 52.445312 61.453125 56.699219 64.757812 C 62.742188 69.234375 69.683594 64.589844 72.257812 58.878906 C 74.046875 55.242188 75 51.210938 74.328125 47.125 Z M 74.328125 47.125 " fill-opacity="1" fill-rule="nonzero"/></svg>