<svg xmlns="http://www.w3.org/2000/svg" xmlns:xlink="http://www.w3.org/1999/xlink" width="100" zoomAndPan="magnify" viewBox="0 0 75 74.999997" height="100" preserveAspectRatio="xMidYMid meet" version="1.0"><path fill="#c81c1c" d="M 65.058594 35.59375 C 63.851562 32.769531 62.027344 30.160156 59.558594 28.285156 L 59.269531 28.664062 C 61.398438 30.800781 62.792969 33.449219 63.644531 36.191406 C 64.917969 40.527344 65.097656 45.21875 63.3125 49.320312 C 61.945312 52.605469 60.390625 53.796875 56.816406 53.628906 C 51.082031 52.921875 48.527344 46.039062 48.691406 40.851562 C 48.765625 34.792969 52.105469 29.394531 53.628906 23.324219 C 54.65625 19.675781 54.914062 15.503906 53.496094 11.882812 C 51.449219 6.207031 46.304688 1.675781 40.226562 0.960938 C 32.671875 0.03125 25.046875 4.589844 21.914062 11.429688 C 18.347656 19.023438 20.972656 27.5 26.566406 33.144531 C 21.789062 32.261719 16.59375 33.316406 12.148438 36.929688 C 3.371094 44.109375 3.359375 58.03125 12.132812 65.246094 C 24.101562 75.015625 41.515625 66.125 41.539062 51.082031 C 41.523438 42.519531 35.875 35.960938 28.800781 33.707031 C 23.757812 28.109375 21.097656 19.898438 24.855469 13.003906 C 30.320312 2.984375 44.800781 1.804688 49.097656 13.425781 C 50.140625 16.25 49.828125 19.246094 49.019531 22.109375 C 47.84375 26.523438 45.847656 30.617188 44.792969 35.105469 C 42.988281 42.464844 44.859375 51.667969 51.730469 55.816406 C 54.46875 57.421875 57.898438 57.570312 60.855469 56.453125 C 63.964844 55.335938 65.453125 52.144531 66.304688 49.171875 C 67.492188 44.679688 66.847656 39.828125 65.058594 35.59375 Z M 40.886719 51.082031 C 40.847656 61.339844 30.246094 68.386719 20.792969 64.367188 C 9.136719 59.378906 9.132812 42.78125 20.792969 37.792969 C 30.246094 33.765625 40.847656 40.820312 40.886719 51.082031 Z M 40.886719 51.082031 " fill-opacity="1" fill-rule="nonzero"/></svg>