<svg xmlns="http://www.w3.org/2000/svg" xmlns:xlink="http://www.w3.org/1999/xlink" width="100" zoomAndPan="magnify" viewBox="0 0 75 74.999997" height="100" preserveAspectRatio="xMidYMid meet" version="1.0"><defs><clipPath id="23dcaa85a6"><path d="M 12.09375 0 L 63.09375 0 L 63.09375 75 L 12.09375 75 Z M 12.09375 0 " clip-rule="nonzero"/></clipPath><clipPath id="5aac5d3350"><path d="M 0.09375 0 L 50.90625 0 L 50.90625 75 L 0.09375 75 Z M 0.09375 0 " clip-rule="nonzero"/></clipPath><clipPath id="ebcb9bf0ed"><rect x="0" width="52" y="0" height="75"/></clipPath></defs><g clip-path="url(#23dcaa85a6)"><g transform="matrix(1, 0, 0, 1, 12, -0.000000000000001893)"><g clip-path="url(#ebcb9bf0ed)"><g clip-path="url(#5aac5d3350)"><path fill="#bd992e" d="M 13.359375 0 C 11.292969 0 9.269531 0.175781 7.246094 0.484375 C 5.179688 0.835938 3.203125 1.320312 1.3125 1.976562 C 0.386719 2.285156 -0.09375 3.296875 0.210938 4.21875 C 0.386719 4.835938 0.960938 5.277344 1.574219 5.363281 C 9.269531 6.726562 16.039062 10.816406 20.832031 16.574219 C 25.578125 22.246094 28.4375 29.542969 28.4375 37.5 C 28.4375 45.457031 25.578125 52.753906 20.832031 58.425781 C 16.039062 64.183594 9.269531 68.273438 1.574219 69.636719 C 0.609375 69.8125 -0.0507812 70.691406 0.125 71.660156 C 0.257812 72.363281 0.742188 72.890625 1.398438 73.066406 C 3.246094 73.679688 5.222656 74.164062 7.246094 74.515625 C 9.269531 74.824219 11.292969 75 13.359375 75 C 23.734375 75 33.097656 70.824219 39.910156 64.007812 C 46.679688 57.238281 50.902344 47.875 50.902344 37.5 C 50.902344 27.125 46.679688 17.761719 39.910156 10.992188 C 33.097656 4.175781 23.734375 0 13.359375 0 Z M 8.875 3.78125 C 10.324219 3.605469 11.820312 3.515625 13.359375 3.515625 C 22.765625 3.515625 31.25 7.296875 37.40625 13.453125 C 43.558594 19.605469 47.382812 28.09375 47.382812 37.5 C 47.382812 46.90625 43.558594 55.394531 37.40625 61.546875 C 31.25 67.703125 22.765625 71.484375 13.359375 71.484375 C 11.820312 71.484375 10.324219 71.394531 8.875 71.21875 C 14.632812 68.976562 19.644531 65.328125 23.558594 60.667969 C 28.789062 54.425781 31.953125 46.335938 31.953125 37.5 C 31.953125 28.664062 28.789062 20.574219 23.558594 14.332031 C 19.644531 9.671875 14.632812 6.023438 8.875 3.78125 Z M 8.875 3.78125 " fill-opacity="1" fill-rule="nonzero"/></g></g></g></g></svg>