<svg xmlns="http://www.w3.org/2000/svg" xmlns:xlink="http://www.w3.org/1999/xlink" width="100" zoomAndPan="magnify" viewBox="0 0 75 74.999997" height="100" preserveAspectRatio="xMidYMid meet" version="1.0"><defs><clipPath id="6f5f8e5b00"><path d="M 11.527344 0 L 61 0 L 61 75 L 11.527344 75 Z M 11.527344 0 " clip-rule="nonzero"/></clipPath></defs><g clip-path="url(#6f5f8e5b00)"><path fill="#7e32df" d="M 60.933594 30.023438 C 56.660156 30.984375 52.332031 31.890625 48.007812 32.746094 C 48.273438 27.511719 49.339844 22.277344 51.476562 17.203125 C 53.722656 11.382812 56.660156 5.667969 60.128906 0.00390625 C 54.574219 3.742188 50.035156 8.976562 46.617188 14.851562 C 43.039062 20.675781 41.277344 27.296875 41.167969 34.027344 C 38.179688 34.5625 35.1875 35.148438 32.25 35.683594 C 31.609375 30.34375 29.898438 25.109375 27.070312 20.460938 C 23.597656 14.53125 19.109375 9.351562 13.554688 5.613281 C 16.972656 11.273438 19.964844 16.988281 22.15625 22.8125 C 24.078125 27.40625 25.144531 32.160156 25.519531 36.914062 C 20.871094 37.714844 16.171875 38.515625 11.527344 39.316406 C 15.90625 40.703125 20.710938 41.398438 25.679688 41.453125 C 25.464844 53.417969 20.871094 65.273438 13.554688 74.996094 C 25.574219 68.160156 32.304688 54.644531 32.515625 41.132812 C 35.507812 40.8125 38.5 40.277344 41.4375 39.53125 C 42.773438 51.652344 49.339844 63.191406 60.128906 69.386719 C 53.132812 60.09375 48.648438 48.824219 48.058594 37.445312 C 52.867188 35.578125 57.300781 33.121094 60.933594 30.023438 Z M 60.933594 30.023438 " fill-opacity="1" fill-rule="nonzero"/></g></svg>