<svg xmlns="http://www.w3.org/2000/svg" xmlns:xlink="http://www.w3.org/1999/xlink" width="100" zoomAndPan="magnify" viewBox="0 0 75 74.999997" height="100" preserveAspectRatio="xMidYMid meet" version="1.0"><path fill="#3cc221" d="M 61.113281 50.785156 C 66.519531 45.941406 74.554688 40.378906 73.886719 31.621094 C 73.578125 26.675781 69.972656 19.519531 64.097656 20.652344 C 62.914062 21.011719 61.832031 21.628906 60.90625 22.402344 C 60.800781 20.34375 60.597656 18.382812 60.234375 16.53125 C 59.359375 11.019531 54.3125 4.683594 48.027344 7.105469 C 45.246094 8.445312 43.339844 10.863281 42.105469 13.59375 C 42 13.335938 41.898438 13.027344 41.742188 12.769531 C 39.941406 8.957031 35.304688 5.25 30.722656 7 C 27.167969 8.648438 25.054688 11.996094 23.765625 15.707031 C 22.945312 12.152344 20.574219 7.980469 16.761719 6.898438 C 13.722656 5.816406 10.222656 5.867188 7.492188 7.671875 C 0.742188 12.308594 0.433594 24.773438 7.234375 29.097656 C 2.648438 23.691406 6.152344 8.445312 14.753906 12.253906 C 17.070312 13.335938 17.484375 15.292969 18.101562 17.816406 C 19.648438 23.84375 19.648438 29.921875 19.492188 36.15625 C 19.285156 42.542969 19.082031 48.878906 18.050781 55.265625 C 21.449219 49.597656 22.996094 43.058594 24.179688 36.617188 C 25.105469 31.160156 25.46875 25.441406 24.589844 19.878906 C 26.445312 16.890625 28.558594 13.953125 31.183594 12.253906 C 32.9375 11.378906 33.554688 11.84375 34.945312 13.078125 C 40.609375 19.828125 38.757812 39.398438 36.902344 48.054688 C 38.652344 46.042969 39.941406 43.625 40.972656 41.152344 C 43.804688 33.890625 45.246094 25.542969 43.445312 17.765625 C 43.753906 17.304688 44.113281 16.839844 44.421875 16.375 C 45.761719 14.625 47.71875 12.253906 49.675781 11.792969 C 51.222656 11.535156 52.664062 13.078125 53.332031 14.417969 C 56.785156 23.125 54.878906 42.285156 51.582031 52.636719 C 50.964844 53.511719 50.347656 54.390625 49.78125 55.367188 C 48.390625 57.738281 46.84375 61.085938 47.359375 64.175781 C 47.875 66.90625 49.625 69.6875 52.40625 70.667969 C 58.277344 72.933594 66.933594 65.617188 64.203125 59.589844 C 63.6875 58.664062 62.503906 58.253906 61.574219 58.5625 C 62.503906 58.664062 63.222656 59.230469 63.378906 60.003906 C 63.894531 63.816406 59.101562 67.007812 55.753906 67.058594 C 53.488281 67.007812 52.664062 65.414062 52.457031 63.507812 C 52.507812 61.652344 53.488281 60.160156 54.621094 58.40625 C 56.476562 55.832031 58.640625 53 61.113281 50.785156 Z M 60.957031 24.152344 C 62.347656 23.328125 63.945312 22.867188 65.4375 23.175781 C 68.835938 25.082031 69.816406 30.179688 68.835938 33.835938 C 66.726562 40.019531 60.492188 42.851562 55.910156 47.488281 C 59.308594 40.535156 61.007812 31.878906 60.957031 24.152344 Z M 60.957031 24.152344 " fill-opacity="1" fill-rule="nonzero"/></svg>