<svg xmlns="http://www.w3.org/2000/svg" xmlns:xlink="http://www.w3.org/1999/xlink" width="100" zoomAndPan="magnify" viewBox="0 0 75 74.999997" height="100" preserveAspectRatio="xMidYMid meet" version="1.0"><defs><clipPath id="fee43e5bb6"><path d="M 7.875 0 L 67.875 0 L 67.875 75 L 7.875 75 Z M 7.875 0 " clip-rule="nonzero"/></clipPath></defs><g clip-path="url(#fee43e5bb6)"><path fill="#3cc221" d="M 64.984375 33.449219 C 63.410156 29.914062 61.128906 26.726562 58.339844 24.121094 C 55.652344 21.601562 52.488281 19.625 49.089844 18.320312 C 50.9375 17.347656 52.660156 16.164062 54.210938 14.804688 C 56.4375 12.855469 58.3125 10.550781 59.734375 8.03125 C 61.160156 5.515625 62.132812 2.78125 62.589844 0 C 61.566406 2.621094 60.164062 5.042969 58.449219 7.160156 C 56.734375 9.28125 54.710938 11.097656 52.484375 12.546875 C 50.261719 13.996094 47.835938 15.066406 45.335938 15.730469 C 44.082031 16.058594 42.8125 16.292969 41.539062 16.414062 C 41.183594 16.453125 40.832031 16.476562 40.480469 16.496094 C 39.558594 16.449219 38.632812 16.449219 37.714844 16.492188 L 37.714844 16.480469 C 37.265625 16.460938 36.816406 16.449219 36.363281 16.449219 C 35.890625 16.449219 35.414062 16.460938 34.9375 16.488281 C 34.589844 16.46875 34.242188 16.441406 33.894531 16.40625 C 32.621094 16.28125 31.347656 16.050781 30.097656 15.71875 C 27.597656 15.058594 25.171875 13.988281 22.949219 12.539062 C 20.722656 11.09375 18.699219 9.277344 16.984375 7.160156 C 15.265625 5.042969 13.867188 2.621094 12.839844 0 C 13.292969 2.78125 14.265625 5.515625 15.691406 8.035156 C 17.113281 10.554688 18.984375 12.859375 21.210938 14.8125 C 22.753906 16.164062 24.46875 17.347656 26.3125 18.320312 C 22.917969 19.621094 19.765625 21.597656 17.078125 24.113281 C 15.683594 25.414062 14.417969 26.867188 13.300781 28.433594 C 12.179688 29.996094 11.222656 31.679688 10.433594 33.445312 C 8.855469 36.976562 7.996094 40.855469 7.917969 44.746094 C 7.875 46.691406 8.03125 48.648438 8.378906 50.578125 L 8.410156 50.761719 L 8.445312 50.941406 L 8.519531 51.300781 L 8.675781 52.019531 C 8.722656 52.261719 8.792969 52.496094 8.851562 52.734375 L 9.042969 53.445312 C 9.101562 53.683594 9.183594 53.914062 9.253906 54.148438 L 9.480469 54.851562 C 9.554688 55.085938 9.644531 55.3125 9.730469 55.542969 L 9.992188 56.234375 C 11.441406 59.886719 13.632812 63.25 16.394531 66.066406 C 19.15625 68.882812 22.488281 71.148438 26.140625 72.679688 C 27.96875 73.445312 29.871094 74.03125 31.816406 74.417969 C 33.757812 74.808594 35.738281 75 37.714844 75.003906 C 39.6875 75 41.667969 74.808594 43.609375 74.417969 C 45.554688 74.03125 47.457031 73.441406 49.285156 72.675781 C 52.9375 71.144531 56.265625 68.875 59.027344 66.058594 C 61.789062 63.246094 63.976562 59.882812 65.425781 56.226562 C 66.15625 54.402344 66.691406 52.503906 67.039062 50.578125 L 67.15625 49.851562 L 67.238281 49.308594 C 67.25 49.246094 67.253906 49.183594 67.261719 49.125 L 67.339844 48.398438 L 67.378906 48.03125 C 67.394531 47.910156 67.410156 47.789062 67.414062 47.667969 C 67.441406 47.179688 67.472656 46.695312 67.492188 46.207031 L 67.496094 44.746094 C 67.421875 40.855469 66.5625 36.980469 64.984375 33.449219 Z M 59.511719 44.746094 L 59.453125 45.816406 C 59.421875 46.171875 59.378906 46.527344 59.347656 46.882812 C 59.339844 46.96875 59.324219 47.058594 59.308594 47.144531 L 59.269531 47.410156 L 59.191406 47.9375 C 59.183594 47.984375 59.179688 48.027344 59.171875 48.070312 L 59.144531 48.199219 L 59.089844 48.460938 L 58.984375 48.984375 C 58.675781 50.367188 58.226562 51.714844 57.660156 53.007812 C 56.53125 55.59375 54.890625 57.949219 52.875 59.90625 C 50.863281 61.867188 48.472656 63.429688 45.886719 64.480469 C 43.300781 65.53125 40.519531 66.070312 37.714844 66.070312 C 34.910156 66.070312 32.132812 65.53125 29.546875 64.476562 C 26.960938 63.425781 24.574219 61.863281 22.558594 59.902344 C 20.542969 57.941406 18.910156 55.585938 17.777344 53.003906 C 17.210938 51.710938 16.765625 50.363281 16.457031 48.980469 C 16.148438 47.597656 15.976562 46.179688 15.929688 44.746094 C 15.855469 41.886719 16.320312 39.011719 17.335938 36.308594 C 18.34375 33.605469 19.890625 31.074219 21.878906 28.910156 C 23.863281 26.742188 26.285156 24.949219 28.984375 23.664062 L 29.492188 23.433594 C 29.664062 23.355469 29.832031 23.269531 30.007812 23.207031 L 30.53125 23 C 30.707031 22.933594 30.878906 22.855469 31.054688 22.800781 L 31.589844 22.617188 C 31.769531 22.558594 31.941406 22.488281 32.125 22.441406 L 32.667969 22.285156 L 32.941406 22.203125 L 33.078125 22.164062 L 33.214844 22.132812 C 34.675781 21.761719 36.183594 21.519531 37.714844 21.429688 L 37.714844 21.417969 C 39.246094 21.507812 40.753906 21.75 42.21875 22.121094 L 42.355469 22.152344 L 42.765625 22.269531 L 43.308594 22.429688 C 43.492188 22.476562 43.664062 22.546875 43.84375 22.605469 L 44.378906 22.789062 C 44.558594 22.84375 44.730469 22.921875 44.902344 22.988281 L 45.425781 23.195312 C 45.601562 23.257812 45.769531 23.34375 45.941406 23.417969 L 46.453125 23.652344 C 47.800781 24.296875 49.082031 25.0625 50.273438 25.945312 C 51.464844 26.828125 52.570312 27.816406 53.5625 28.898438 C 55.550781 31.066406 57.097656 33.597656 58.109375 36.300781 C 58.609375 37.65625 58.988281 39.050781 59.21875 40.464844 C 59.449219 41.878906 59.550781 43.3125 59.511719 44.746094 Z M 59.511719 44.746094 " fill-opacity="1" fill-rule="nonzero"/></g></svg>