<svg xmlns="http://www.w3.org/2000/svg" xmlns:xlink="http://www.w3.org/1999/xlink" width="100" zoomAndPan="magnify" viewBox="0 0 75 74.999997" height="100" preserveAspectRatio="xMidYMid meet" version="1.0"><defs><clipPath id="bc30eb2a2d"><path d="M 14.648438 0 L 55.148438 0 L 55.148438 75 L 14.648438 75 Z M 14.648438 0 " clip-rule="nonzero"/></clipPath></defs><g clip-path="url(#bc30eb2a2d)"><path fill="#000000" d="M 55.167969 54.84375 C 55.167969 65.960938 46.101562 74.972656 34.914062 74.972656 C 23.726562 74.972656 14.65625 65.960938 14.65625 54.84375 C 14.65625 48.980469 17.183594 43.679688 21.25 39.984375 L 21.25 0.00390625 L 26.628906 0.00390625 L 26.628906 11.085938 L 36.726562 1.128906 L 40.507812 4.910156 L 27.746094 17.492188 L 40.507812 30.074219 L 36.726562 33.851562 L 26.628906 23.898438 L 26.628906 36.472656 C 39.9375 30.539062 55.167969 40.210938 55.167969 54.84375 L 55.171875 54.84375 Z M 45.433594 65.296875 C 54.78125 56.011719 48.128906 40.0625 34.914062 40.0625 C 21.699219 40.0625 15.046875 56.007812 24.394531 65.296875 C 30.203125 71.070312 39.625 71.070312 45.433594 65.296875 Z M 45.433594 65.296875 " fill-opacity="1" fill-rule="nonzero"/></g></svg>