<svg xmlns="http://www.w3.org/2000/svg" xmlns:xlink="http://www.w3.org/1999/xlink" width="100" zoomAndPan="magnify" viewBox="0 0 75 74.999997" height="100" preserveAspectRatio="xMidYMid meet" version="1.0"><path fill="#000000" d="M 7.8125 26.207031 C 8.058594 26.371094 8.386719 26.535156 8.632812 26.535156 C 10.113281 27.523438 11.757812 28.179688 13.566406 28.507812 C 11.757812 30.972656 10.359375 33.679688 9.457031 36.636719 C 5.921875 48.136719 10.9375 61.519531 20.886719 68.171875 C 30.835938 74.824219 44.484375 74.332031 54.023438 67.023438 C 63.3125 59.878906 67.34375 46.902344 64.054688 35.734375 C 63.3125 33.269531 62.164062 30.890625 60.683594 28.671875 C 62.738281 28.507812 64.710938 27.851562 66.355469 26.78125 C 72.851562 22.59375 74.25 12.65625 69.480469 6.746094 C 64.546875 0.585938 54.269531 0.175781 48.761719 5.84375 C 43.167969 11.671875 44.238281 21.855469 50.898438 26.289062 C 51.144531 26.453125 51.472656 26.617188 51.71875 26.617188 C 51.882812 26.78125 52.132812 26.863281 52.296875 27.03125 C 56.160156 30.644531 58.792969 35.40625 59.449219 40.742188 C 60.929688 53.144531 52.625 64.3125 40.125 65.792969 C 28.203125 67.105469 17.433594 59.304688 15.539062 47.230469 C 14.472656 40.085938 18.746094 31.300781 23.1875 26.78125 C 29.683594 22.59375 31.082031 12.65625 26.3125 6.746094 C 21.378906 0.585938 11.101562 0.175781 5.589844 5.84375 C 0 11.507812 1.070312 21.773438 7.8125 26.207031 Z M 53.609375 10.523438 C 56.488281 7.566406 62.082031 7.8125 64.710938 10.933594 C 67.589844 14.21875 66.519531 20.132812 62.820312 22.347656 C 60.105469 23.910156 57.148438 23.5 54.515625 22.183594 C 54.433594 22.101562 54.433594 22.019531 54.351562 21.9375 C 51.554688 18.898438 50.488281 13.726562 53.609375 10.523438 Z M 10.441406 10.523438 C 13.320312 7.566406 18.910156 7.8125 21.542969 10.933594 C 24.421875 14.21875 23.351562 20.132812 19.652344 22.347656 C 16.9375 23.910156 13.976562 23.5 11.347656 22.183594 C 11.265625 22.101562 11.265625 22.019531 11.183594 21.9375 C 8.304688 18.898438 7.316406 13.726562 10.441406 10.523438 Z M 10.441406 10.523438 " fill-opacity="1" fill-rule="nonzero"/></svg>