<svg xmlns="http://www.w3.org/2000/svg" xmlns:xlink="http://www.w3.org/1999/xlink" width="100" zoomAndPan="magnify" viewBox="0 0 75 74.999997" height="100" preserveAspectRatio="xMidYMid meet" version="1.0"><path fill="#bd992e" d="M 37.5 44.441406 C 41.332031 44.441406 44.441406 41.332031 44.441406 37.5 C 44.441406 33.667969 41.332031 30.5625 37.5 30.5625 C 33.667969 30.5625 30.558594 33.667969 30.558594 37.5 C 30.558594 41.332031 33.667969 44.441406 37.5 44.441406 Z M 37.5 4.625 C 19.375 4.625 4.625 19.375 4.625 37.5 C 4.625 55.625 19.375 70.375 37.5 70.375 C 55.625 70.375 70.375 55.625 70.375 37.5 C 70.375 19.375 55.625 4.625 37.5 4.625 Z M 37.5 75 C 16.824219 75 0 58.175781 0 37.5 C 0 16.824219 16.824219 0 37.5 0 C 58.175781 0 75 16.824219 75 37.5 C 75 58.175781 58.175781 75 37.5 75 " fill-opacity="1" fill-rule="nonzero"/></svg>