<svg xmlns="http://www.w3.org/2000/svg" xmlns:xlink="http://www.w3.org/1999/xlink" width="100" zoomAndPan="magnify" viewBox="0 0 75 74.999997" height="100" preserveAspectRatio="xMidYMid meet" version="1.0"><defs><clipPath id="68729c6323"><path d="M 8.175781 0 L 66.675781 0 L 66.675781 75 L 8.175781 75 Z M 8.175781 0 " clip-rule="nonzero"/></clipPath></defs><g clip-path="url(#68729c6323)"><path fill="#09babf" d="M 51.746094 66.300781 C 53.011719 56.785156 53.339844 47.15625 53.394531 37.53125 C 53.339844 28.234375 53.011719 18.9375 51.855469 9.75 C 57.519531 7.824219 62.691406 4.632812 66.761719 0.0117188 C 61.867188 2.050781 57.027344 3.480469 52.183594 4.523438 C 51.855469 4.578125 51.46875 4.632812 51.140625 4.691406 C 50.867188 3.148438 50.589844 1.554688 50.316406 0.0117188 C 49.984375 1.664062 49.710938 3.3125 49.433594 4.964844 C 41.183594 6.230469 32.933594 5.789062 24.789062 4.359375 C 24.625 3.257812 24.40625 2.160156 24.183594 1.058594 C 23.964844 2.105469 23.800781 3.148438 23.636719 4.140625 C 18.464844 3.148438 13.292969 1.71875 8.175781 0.0117188 C 12.304688 4.03125 17.363281 7.109375 22.921875 9.089844 C 21.601562 18.828125 21.214844 28.675781 21.160156 38.519531 C 21.214844 47.652344 21.546875 56.785156 22.644531 65.859375 C 17.144531 67.785156 12.136719 70.921875 8.175781 75.433594 C 13.074219 73.398438 17.914062 71.964844 22.753906 70.921875 C 22.976562 70.867188 23.140625 70.867188 23.359375 70.8125 C 23.636719 72.515625 23.910156 74.277344 24.242188 75.980469 C 24.570312 74.167969 24.902344 72.296875 25.175781 70.480469 C 33.371094 69.214844 41.570312 69.546875 49.65625 70.976562 C 49.875 72.296875 50.09375 73.617188 50.371094 74.9375 C 50.589844 73.671875 50.808594 72.460938 51.03125 71.195312 C 56.367188 72.1875 61.59375 73.671875 66.816406 75.378906 C 62.582031 71.363281 57.410156 68.28125 51.746094 66.300781 Z M 25.945312 64.925781 C 26.9375 56.179688 27.265625 47.378906 27.320312 38.519531 C 27.265625 28.949219 26.9375 19.433594 25.726562 9.96875 C 33.207031 12.117188 41.292969 12.390625 48.71875 10.574219 C 47.675781 19.488281 47.34375 28.453125 47.289062 37.476562 C 47.34375 46.773438 47.675781 56.070312 48.828125 65.308594 C 41.347656 63.273438 33.316406 63.054688 25.945312 64.925781 Z M 25.945312 64.925781 " fill-opacity="1" fill-rule="nonzero"/></g></svg>