<svg xmlns="http://www.w3.org/2000/svg" xmlns:xlink="http://www.w3.org/1999/xlink" width="100" zoomAndPan="magnify" viewBox="0 0 75 74.999997" height="100" preserveAspectRatio="xMidYMid meet" version="1.0"><defs><clipPath id="2c5aceef80"><path d="M 16.875 0 L 58.125 0 L 58.125 75 L 16.875 75 Z M 16.875 0 " clip-rule="nonzero"/></clipPath></defs><g clip-path="url(#2c5aceef80)"><path fill="#000000" d="M 40.460938 0.0273438 L 40.460938 13.027344 L 50 3.488281 L 54.183594 7.671875 L 44.644531 17.210938 L 58.132812 17.210938 L 58.132812 23.128906 L 44.644531 23.128906 L 54.183594 32.667969 L 50 36.851562 L 40.460938 27.3125 L 40.460938 57.3125 L 50.503906 57.3125 L 50.503906 63.230469 L 40.460938 63.230469 L 40.460938 74.945312 L 34.542969 74.945312 L 34.542969 63.230469 L 24.503906 63.230469 L 24.503906 57.3125 L 34.542969 57.3125 L 34.542969 27.3125 L 25.007812 36.851562 L 20.820312 32.667969 L 30.359375 23.128906 L 16.871094 23.128906 L 16.871094 17.210938 L 30.359375 17.210938 L 20.820312 7.671875 L 25.007812 3.488281 L 34.542969 13.027344 L 34.542969 0.0273438 Z M 40.460938 0.0273438 " fill-opacity="1" fill-rule="nonzero"/></g></svg>