<svg xmlns="http://www.w3.org/2000/svg" xmlns:xlink="http://www.w3.org/1999/xlink" width="100" zoomAndPan="magnify" viewBox="0 0 75 74.999997" height="100" preserveAspectRatio="xMidYMid meet" version="1.0"><defs><clipPath id="2266e2af1b"><path d="M 3.09375 0 L 72 0 L 72 75 L 3.09375 75 Z M 3.09375 0 " clip-rule="nonzero"/></clipPath></defs><g clip-path="url(#2266e2af1b)"><path fill="#9b9595" d="M 22.109375 0.121094 C 16.65625 0.121094 11.839844 2.019531 8.46875 5.417969 C 5.101562 8.816406 3.269531 13.625 3.269531 18.984375 L 9.492188 18.984375 C 9.492188 15.007812 10.769531 11.9375 12.890625 9.800781 C 15.011719 7.660156 18.054688 6.347656 22.109375 6.347656 C 29.15625 6.347656 34.386719 11.707031 34.386719 18.796875 C 34.386719 29.1875 26.792969 41.199219 6.257812 49.746094 L 6.410156 50.105469 L 6.378906 50.105469 L 6.378906 56.328125 L 53.058594 56.328125 L 53.058594 75 L 59.285156 75 L 59.285156 56.328125 L 71.730469 56.328125 L 71.730469 50.105469 L 59.285156 50.105469 L 59.285156 0.3125 L 53.058594 0.3125 L 53.058594 50.105469 L 18.628906 50.105469 C 33.355469 41.269531 40.613281 29.894531 40.613281 18.796875 C 40.613281 8.507812 32.441406 0.121094 22.109375 0.121094 Z M 22.109375 0.121094 " fill-opacity="1" fill-rule="nonzero"/></g></svg>