<svg xmlns="http://www.w3.org/2000/svg" xmlns:xlink="http://www.w3.org/1999/xlink" width="100" zoomAndPan="magnify" viewBox="0 0 75 74.999997" height="100" preserveAspectRatio="xMidYMid meet" version="1.0"><defs><clipPath id="b5f8ae7da3"><path d="M 1 4 L 39 4 L 39 73.875 L 1 73.875 Z M 1 4 " clip-rule="nonzero"/></clipPath><clipPath id="d414f1f262"><path d="M 36 4 L 74 4 L 74 73.875 L 36 73.875 Z M 36 4 " clip-rule="nonzero"/></clipPath></defs><g clip-path="url(#b5f8ae7da3)"><path fill="#c81c1c" d="M 8.808594 34.910156 C 4.109375 29.4375 0.0195312 22.398438 1.457031 14.835938 C 3.347656 5.679688 13.125 1.125 21.167969 6.046875 C 37.570312 15.460938 40.34375 56.902344 37.449219 73.875 C 36.511719 64.542969 34.957031 55.492188 33.105469 46.4375 C 31 36.582031 26.957031 16.191406 18.292969 10.820312 C 13.140625 7.246094 7.070312 10.214844 5.171875 15.828125 C 3.140625 22.226562 6.035156 28.878906 8.808594 34.910156 Z M 8.808594 34.910156 " fill-opacity="1" fill-rule="nonzero"/></g><g clip-path="url(#d414f1f262)"><path fill="#c81c1c" d="M 66.203125 34.910156 C 68.976562 28.878906 71.867188 22.222656 69.839844 15.828125 C 67.9375 10.214844 61.871094 7.242188 56.71875 10.820312 C 48.066406 16.179688 44.015625 36.566406 41.90625 46.4375 C 40.054688 55.492188 38.5 64.542969 37.5625 73.875 C 34.675781 56.949219 37.414062 15.496094 53.839844 6.046875 C 61.882812 1.128906 71.664062 5.679688 73.550781 14.835938 C 74.992188 22.398438 70.898438 29.4375 66.203125 34.910156 Z M 66.203125 34.910156 " fill-opacity="1" fill-rule="nonzero"/></g></svg>