<svg xmlns="http://www.w3.org/2000/svg" xmlns:xlink="http://www.w3.org/1999/xlink" width="100" zoomAndPan="magnify" viewBox="0 0 75 74.999997" height="100" preserveAspectRatio="xMidYMid meet" version="1.0"><path fill="#09babf" d="M 0.0351562 32.203125 C 2.28125 30.34375 20.472656 13.917969 22.65625 14.597656 C 24.277344 15.101562 27.054688 22.976562 28.644531 27.710938 C 33.691406 23.246094 44.292969 13.902344 45.308594 13.683594 C 49.15625 12.863281 50.535156 24.621094 51.535156 28.253906 C 56.871094 22.585938 67.882812 11.15625 69.96875 13.113281 C 70.855469 13.941406 74.285156 30.167969 74.960938 33.003906 L 68.597656 16.765625 C 64.253906 22 52.890625 35.761719 49.835938 34.957031 C 47.824219 34.425781 45.730469 25.660156 44.46875 20.195312 C 39.207031 25.0625 29.039062 34.417969 27.007812 33.886719 C 24.792969 33.304688 22.25 24.058594 20.957031 19.304688 Z M 0.0351562 63.9375 C 2.28125 62.082031 20.472656 45.652344 22.65625 46.332031 C 24.277344 46.839844 27.054688 54.714844 28.644531 59.445312 C 33.6875 54.980469 44.292969 45.636719 45.308594 45.421875 C 49.15625 44.601562 50.535156 56.355469 51.535156 59.988281 C 56.871094 54.320312 67.882812 42.890625 69.96875 44.847656 C 70.855469 45.679688 74.285156 61.90625 74.960938 64.742188 L 68.597656 48.5 C 64.253906 53.738281 52.890625 67.5 49.835938 66.691406 C 47.824219 66.160156 45.730469 57.394531 44.46875 51.933594 C 39.207031 56.796875 29.039062 66.152344 27.007812 65.621094 C 24.792969 65.042969 22.25 55.796875 20.957031 51.042969 Z M 0.0351562 63.9375 " fill-opacity="1" fill-rule="evenodd"/></svg>