<svg xmlns="http://www.w3.org/2000/svg" xmlns:xlink="http://www.w3.org/1999/xlink" width="100" zoomAndPan="magnify" viewBox="0 0 75 74.999997" height="100" preserveAspectRatio="xMidYMid meet" version="1.0"><defs><clipPath id="f1198032b3"><path d="M 0 0 L 74.886719 0 L 74.886719 74.78125 L 0 74.78125 Z M 0 0 " clip-rule="nonzero"/></clipPath><clipPath id="4d0be2783e"><rect x="0" width="75" y="0" height="75"/></clipPath></defs><g clip-path="url(#f1198032b3)"><g transform="matrix(1, 0, 0, 1, 0, -0.000000000000001893)"><g clip-path="url(#4d0be2783e)"><path fill="#000000" d="M 7.777344 48.519531 C 8.023438 48.355469 8.355469 48.191406 8.605469 48.191406 C 10.101562 47.195312 11.761719 46.53125 13.589844 46.199219 C 11.761719 43.710938 10.351562 40.972656 9.4375 37.988281 C 5.867188 26.375 10.933594 12.855469 20.980469 6.136719 C 31.03125 -0.582031 44.820312 -0.0820312 54.453125 7.300781 C 63.839844 14.515625 67.910156 27.621094 64.585938 38.898438 C 63.839844 41.386719 62.675781 43.792969 61.179688 46.03125 C 63.257812 46.199219 65.25 46.863281 66.914062 47.941406 C 73.472656 52.171875 74.886719 62.207031 70.066406 68.179688 C 65.085938 74.398438 54.703125 74.8125 49.136719 69.089844 C 43.488281 63.203125 44.570312 52.917969 51.296875 48.4375 C 51.546875 48.273438 51.878906 48.105469 52.128906 48.105469 C 52.292969 47.941406 52.542969 47.859375 52.710938 47.691406 C 56.613281 44.042969 59.269531 39.230469 59.933594 33.839844 C 61.429688 21.316406 53.042969 10.035156 40.417969 8.542969 C 28.375 7.214844 17.492188 15.09375 15.582031 27.289062 C 14.503906 34.503906 18.824219 43.378906 23.308594 47.941406 C 29.867188 52.171875 31.28125 62.207031 26.464844 68.179688 C 21.480469 74.398438 11.097656 74.8125 5.535156 69.089844 C -0.113281 63.367188 0.964844 53 7.777344 48.519531 Z M 54.039062 64.363281 C 56.945312 67.347656 62.59375 67.101562 65.25 63.949219 C 68.15625 60.632812 67.078125 54.660156 63.339844 52.417969 C 60.601562 50.84375 57.609375 51.257812 54.953125 52.585938 C 54.867188 52.667969 54.867188 52.75 54.785156 52.835938 C 51.960938 55.902344 50.882812 61.128906 54.039062 64.363281 Z M 10.433594 64.363281 C 13.339844 67.347656 18.988281 67.101562 21.644531 63.949219 C 24.554688 60.632812 23.472656 54.660156 19.734375 52.417969 C 16.996094 50.84375 14.003906 51.257812 11.347656 52.585938 C 11.265625 52.667969 11.265625 52.75 11.179688 52.835938 C 8.273438 55.902344 7.277344 61.128906 10.433594 64.363281 Z M 10.433594 64.363281 " fill-opacity="1" fill-rule="nonzero"/></g></g></g></svg>