<svg xmlns="http://www.w3.org/2000/svg" xmlns:xlink="http://www.w3.org/1999/xlink" width="100" zoomAndPan="magnify" viewBox="0 0 75 74.999997" height="100" preserveAspectRatio="xMidYMid meet" version="1.0"><defs><clipPath id="cc5355860c"><path d="M 11.53125 0 L 63.28125 0 L 63.28125 75 L 11.53125 75 Z M 11.53125 0 " clip-rule="nonzero"/></clipPath></defs><g clip-path="url(#cc5355860c)"><path fill="#000000" d="M 38.84375 0 C 23.761719 0 11.539062 12.269531 11.539062 27.402344 C 11.539062 41.0625 21.507812 52.351562 34.53125 54.429688 L 34.53125 60.578125 L 25.910156 60.578125 L 25.910156 66.347656 L 34.53125 66.347656 L 34.53125 74.960938 L 40.28125 74.960938 L 40.28125 66.347656 L 48.902344 66.347656 L 48.902344 60.578125 L 40.28125 60.578125 L 40.28125 54.707031 C 50.339844 54.175781 58.949219 48.230469 63.234375 39.675781 C 60.507812 41.917969 57.015625 43.269531 53.214844 43.269531 C 44.484375 43.269531 37.40625 36.167969 37.40625 27.402344 C 37.40625 18.640625 44.484375 11.539062 53.214844 11.539062 C 57.015625 11.539062 60.507812 12.890625 63.234375 15.132812 C 58.746094 6.167969 49.523438 0 38.84375 0 Z M 38.84375 5.769531 C 41.34375 5.769531 43.773438 6.199219 46.039062 7.003906 C 37.671875 9.976562 31.65625 17.996094 31.65625 27.402344 C 31.65625 36.8125 37.671875 44.832031 46.039062 47.804688 C 43.773438 48.609375 41.34375 49.039062 38.84375 49.039062 C 26.957031 49.039062 17.285156 39.332031 17.285156 27.402344 C 17.285156 15.476562 26.957031 5.769531 38.84375 5.769531 Z M 38.84375 5.769531 " fill-opacity="1" fill-rule="nonzero"/></g></svg>