<svg xmlns="http://www.w3.org/2000/svg" xmlns:xlink="http://www.w3.org/1999/xlink" width="100" zoomAndPan="magnify" viewBox="0 0 75 74.999997" height="100" preserveAspectRatio="xMidYMid meet" version="1.0"><defs><clipPath id="669e5110f8"><path d="M 2 1.96875 L 73 1.96875 L 73 73 L 2 73 Z M 2 1.96875 " clip-rule="nonzero"/></clipPath></defs><g clip-path="url(#669e5110f8)"><path fill="#a40b0b" d="M 72.542969 4.347656 C 72.507812 4.226562 72.453125 4.113281 72.375 4.007812 C 72.257812 3.742188 72.113281 3.492188 71.933594 3.261719 C 71.835938 3.1875 71.753906 3.097656 71.695312 2.988281 C 71.421875 2.753906 71.125 2.550781 70.8125 2.378906 C 70.414062 2.128906 69.984375 1.996094 69.519531 1.96875 L 54.96875 1.96875 C 54.519531 1.96875 54.085938 2.054688 53.667969 2.226562 C 53.25 2.402344 52.882812 2.648438 52.566406 2.964844 C 52.246094 3.285156 52 3.652344 51.828125 4.066406 C 51.65625 4.484375 51.570312 4.917969 51.570312 5.367188 C 51.570312 5.820312 51.65625 6.253906 51.828125 6.671875 C 52 7.085938 52.246094 7.453125 52.566406 7.773438 C 52.882812 8.089844 53.25 8.335938 53.667969 8.511719 C 54.085938 8.683594 54.519531 8.769531 54.96875 8.769531 L 61.191406 8.769531 L 48.578125 22.027344 C 46.066406 20.160156 43.328125 18.734375 40.355469 17.75 C 37.386719 16.765625 34.335938 16.277344 31.207031 16.28125 C 30.269531 16.273438 29.332031 16.3125 28.398438 16.394531 C 27.464844 16.480469 26.539062 16.609375 25.617188 16.785156 C 24.699219 16.957031 23.789062 17.179688 22.886719 17.441406 C 21.988281 17.707031 21.105469 18.015625 20.234375 18.367188 C 19.367188 18.714844 18.515625 19.109375 17.6875 19.542969 C 16.855469 19.976562 16.046875 20.453125 15.265625 20.964844 C 14.480469 21.476562 13.722656 22.027344 12.992188 22.617188 C 12.261719 23.203125 11.5625 23.828125 10.894531 24.484375 C 10.226562 25.140625 9.589844 25.828125 8.988281 26.546875 C 8.386719 27.265625 7.824219 28.011719 7.292969 28.785156 C 6.765625 29.558594 6.277344 30.355469 5.828125 31.179688 C 5.378906 32 4.96875 32.84375 4.601562 33.707031 C 4.234375 34.566406 3.910156 35.445312 3.628906 36.339844 C 3.347656 37.234375 3.109375 38.140625 2.917969 39.058594 C 2.726562 39.972656 2.578125 40.898438 2.476562 41.832031 C 2.375 42.761719 2.320312 43.695312 2.308594 44.632812 C 2.320312 45.570312 2.375 46.503906 2.476562 47.4375 C 2.578125 48.367188 2.726562 49.292969 2.917969 50.210938 C 3.109375 51.128906 3.347656 52.035156 3.628906 52.929688 C 3.910156 53.820312 4.234375 54.699219 4.601562 55.5625 C 4.96875 56.425781 5.378906 57.265625 5.828125 58.089844 C 6.277344 58.910156 6.765625 59.710938 7.292969 60.484375 C 7.824219 61.257812 8.386719 62.003906 8.988281 62.722656 C 9.589844 63.441406 10.226562 64.128906 10.894531 64.785156 C 11.5625 65.441406 12.261719 66.0625 12.992188 66.652344 C 13.722656 67.238281 14.480469 67.789062 15.265625 68.304688 C 16.046875 68.816406 16.855469 69.289062 17.6875 69.726562 C 18.515625 70.160156 19.367188 70.550781 20.234375 70.902344 C 21.105469 71.253906 21.988281 71.5625 22.886719 71.824219 C 23.789062 72.089844 24.699219 72.308594 25.617188 72.484375 C 26.539062 72.660156 27.464844 72.789062 28.398438 72.871094 C 29.332031 72.957031 30.269531 72.996094 31.207031 72.988281 C 32.144531 72.996094 33.078125 72.957031 34.011719 72.871094 C 34.945312 72.789062 35.871094 72.660156 36.792969 72.484375 C 37.714844 72.308594 38.625 72.089844 39.523438 71.824219 C 40.421875 71.5625 41.304688 71.253906 42.175781 70.902344 C 43.042969 70.550781 43.894531 70.160156 44.726562 69.726562 C 45.554688 69.289062 46.363281 68.816406 47.148438 68.304688 C 47.929688 67.789062 48.6875 67.238281 49.417969 66.652344 C 50.148438 66.0625 50.847656 65.441406 51.515625 64.785156 C 52.183594 64.128906 52.820312 63.441406 53.421875 62.722656 C 54.023438 62.003906 54.589844 61.257812 55.117188 60.484375 C 55.644531 59.710938 56.132812 58.910156 56.585938 58.089844 C 57.035156 57.265625 57.441406 56.425781 57.808594 55.5625 C 58.179688 54.699219 58.503906 53.820312 58.785156 52.929688 C 59.0625 52.035156 59.300781 51.128906 59.492188 50.210938 C 59.6875 49.292969 59.832031 48.367188 59.933594 47.4375 C 60.035156 46.503906 60.09375 45.570312 60.101562 44.632812 C 60.105469 41.363281 59.546875 38.195312 58.433594 35.121094 C 57.316406 32.046875 55.707031 29.257812 53.609375 26.753906 L 65.949219 14.070312 L 65.949219 20.496094 C 65.949219 20.949219 66.035156 21.382812 66.207031 21.796875 C 66.378906 22.214844 66.625 22.582031 66.945312 22.902344 C 67.265625 23.21875 67.632812 23.464844 68.046875 23.636719 C 68.464844 23.808594 68.898438 23.898438 69.347656 23.898438 C 69.800781 23.898438 70.234375 23.808594 70.648438 23.636719 C 71.066406 23.464844 71.433594 23.21875 71.753906 22.902344 C 72.070312 22.582031 72.316406 22.214844 72.488281 21.796875 C 72.664062 21.382812 72.75 20.949219 72.75 20.496094 L 72.75 5.539062 C 72.753906 5.128906 72.683594 4.734375 72.542969 4.347656 Z M 31.207031 65.949219 C 30.496094 65.960938 29.785156 65.9375 29.078125 65.882812 C 28.367188 65.824219 27.664062 65.734375 26.964844 65.605469 C 26.265625 65.480469 25.574219 65.320312 24.890625 65.125 C 24.207031 64.929688 23.53125 64.703125 22.871094 64.441406 C 22.210938 64.183594 21.5625 63.890625 20.929688 63.566406 C 20.296875 63.242188 19.683594 62.886719 19.082031 62.503906 C 18.484375 62.121094 17.90625 61.707031 17.351562 61.265625 C 16.792969 60.824219 16.257812 60.359375 15.746094 59.863281 C 15.234375 59.371094 14.75 58.851562 14.289062 58.3125 C 13.828125 57.769531 13.394531 57.207031 12.988281 56.625 C 12.582031 56.039062 12.207031 55.4375 11.859375 54.816406 C 11.511719 54.195312 11.199219 53.558594 10.914062 52.910156 C 10.628906 52.257812 10.378906 51.59375 10.160156 50.917969 C 9.941406 50.242188 9.753906 49.554688 9.605469 48.859375 C 9.453125 48.164062 9.335938 47.464844 9.253906 46.757812 C 9.167969 46.054688 9.121094 45.34375 9.109375 44.632812 C 9.121094 43.921875 9.167969 43.214844 9.253906 42.507812 C 9.335938 41.800781 9.453125 41.101562 9.605469 40.40625 C 9.753906 39.714844 9.941406 39.027344 10.160156 38.351562 C 10.378906 37.675781 10.628906 37.011719 10.914062 36.359375 C 11.199219 35.707031 11.511719 35.070312 11.859375 34.449219 C 12.207031 33.828125 12.582031 33.226562 12.988281 32.644531 C 13.394531 32.058594 13.828125 31.496094 14.289062 30.957031 C 14.75 30.414062 15.234375 29.898438 15.746094 29.402344 C 16.257812 28.910156 16.792969 28.441406 17.351562 28.003906 C 17.90625 27.5625 18.484375 27.148438 19.082031 26.765625 C 19.683594 26.378906 20.296875 26.027344 20.929688 25.703125 C 21.5625 25.378906 22.210938 25.085938 22.871094 24.824219 C 23.53125 24.566406 24.207031 24.335938 24.890625 24.144531 C 25.574219 23.949219 26.265625 23.789062 26.964844 23.660156 C 27.664062 23.535156 28.367188 23.445312 29.078125 23.386719 C 29.785156 23.328125 30.496094 23.304688 31.207031 23.320312 C 31.917969 23.304688 32.625 23.328125 33.335938 23.386719 C 34.042969 23.445312 34.746094 23.535156 35.445312 23.660156 C 36.148438 23.789062 36.839844 23.949219 37.523438 24.144531 C 38.207031 24.335938 38.878906 24.566406 39.539062 24.824219 C 40.203125 25.085938 40.847656 25.378906 41.480469 25.703125 C 42.113281 26.027344 42.730469 26.378906 43.328125 26.765625 C 43.925781 27.148438 44.503906 27.5625 45.0625 28.003906 C 45.617188 28.441406 46.152344 28.910156 46.664062 29.402344 C 47.175781 29.898438 47.664062 30.414062 48.125 30.957031 C 48.585938 31.496094 49.019531 32.058594 49.421875 32.644531 C 49.828125 33.226562 50.207031 33.828125 50.550781 34.449219 C 50.898438 35.070312 51.214844 35.707031 51.496094 36.359375 C 51.78125 37.011719 52.03125 37.675781 52.25 38.351562 C 52.46875 39.027344 52.65625 39.714844 52.808594 40.40625 C 52.957031 41.101562 53.074219 41.800781 53.160156 42.507812 C 53.242188 43.214844 53.289062 43.921875 53.304688 44.632812 C 53.289062 45.34375 53.242188 46.054688 53.160156 46.757812 C 53.074219 47.464844 52.957031 48.164062 52.808594 48.859375 C 52.65625 49.554688 52.46875 50.242188 52.25 50.917969 C 52.03125 51.59375 51.78125 52.257812 51.496094 52.910156 C 51.214844 53.558594 50.898438 54.195312 50.550781 54.816406 C 50.207031 55.4375 49.828125 56.039062 49.421875 56.625 C 49.019531 57.207031 48.585938 57.769531 48.125 58.3125 C 47.664062 58.851562 47.175781 59.371094 46.664062 59.863281 C 46.152344 60.359375 45.617188 60.824219 45.0625 61.265625 C 44.503906 61.707031 43.925781 62.121094 43.328125 62.503906 C 42.730469 62.886719 42.113281 63.242188 41.480469 63.566406 C 40.847656 63.890625 40.203125 64.183594 39.539062 64.441406 C 38.878906 64.703125 38.207031 64.929688 37.523438 65.125 C 36.839844 65.320312 36.148438 65.480469 35.445312 65.605469 C 34.746094 65.734375 34.042969 65.824219 33.335938 65.882812 C 32.625 65.9375 31.917969 65.960938 31.207031 65.949219 Z M 31.207031 65.949219 " fill-opacity="1" fill-rule="nonzero"/></g></svg>