<svg xmlns="http://www.w3.org/2000/svg" xmlns:xlink="http://www.w3.org/1999/xlink" width="100" zoomAndPan="magnify" viewBox="0 0 75 74.999997" height="100" preserveAspectRatio="xMidYMid meet" version="1.0"><defs><clipPath id="53f0b4eef2"><path d="M 15.941406 0 L 59.058594 0 L 59.058594 75 L 15.941406 75 Z M 15.941406 0 " clip-rule="nonzero"/></clipPath></defs><g clip-path="url(#53f0b4eef2)"><path fill="#733086" d="M 19.796875 32.90625 C 19.796875 23.144531 27.738281 15.203125 37.5 15.203125 C 47.261719 15.203125 55.203125 23.144531 55.203125 32.90625 C 55.203125 42.667969 47.261719 50.609375 37.5 50.609375 C 27.738281 50.609375 19.796875 42.667969 19.796875 32.90625 Z M 59.058594 32.90625 C 59.058594 24.1875 53.851562 16.664062 46.382812 13.273438 C 50.996094 11.175781 54.832031 7.484375 57.042969 2.742188 C 57.496094 1.777344 57.078125 0.632812 56.113281 0.179688 C 55.144531 -0.269531 54 0.148438 53.550781 1.113281 C 50.652344 7.332031 44.351562 11.347656 37.5 11.347656 C 30.648438 11.347656 24.347656 7.332031 21.449219 1.113281 C 21 0.148438 19.851562 -0.269531 18.886719 0.179688 C 17.921875 0.632812 17.503906 1.777344 17.953125 2.742188 C 20.164062 7.484375 24.003906 11.175781 28.613281 13.273438 C 21.148438 16.664062 15.941406 24.1875 15.941406 32.90625 C 15.941406 44.144531 24.585938 53.394531 35.570312 54.375 L 35.570312 62.582031 L 27.230469 62.582031 C 26.167969 62.582031 25.304688 63.445312 25.304688 64.507812 C 25.304688 65.574219 26.167969 66.4375 27.230469 66.4375 L 35.570312 66.4375 L 35.570312 73.070312 C 35.570312 74.136719 36.433594 75 37.5 75 C 38.5625 75 39.425781 74.136719 39.425781 73.070312 L 39.425781 66.4375 L 47.765625 66.4375 C 48.832031 66.4375 49.695312 65.574219 49.695312 64.507812 C 49.695312 63.445312 48.832031 62.582031 47.765625 62.582031 L 39.425781 62.582031 L 39.425781 54.375 C 50.414062 53.394531 59.058594 44.144531 59.058594 32.90625 " fill-opacity="1" fill-rule="nonzero"/></g></svg>