<svg xmlns="http://www.w3.org/2000/svg" xmlns:xlink="http://www.w3.org/1999/xlink" width="100" zoomAndPan="magnify" viewBox="0 0 75 74.999997" height="100" preserveAspectRatio="xMidYMid meet" version="1.0"><defs><clipPath id="edc9cfee70"><path d="M 0 1.933594 L 74.25 1.933594 L 74.25 73.183594 L 0 73.183594 Z M 0 1.933594 " clip-rule="nonzero"/></clipPath></defs><g clip-path="url(#edc9cfee70)"><path fill="#44d4d4" d="M 74.542969 16.992188 L 62.699219 1.941406 L 51.332031 17.039062 L 55.761719 20.375 L 60.039062 14.695312 C 59 28.878906 52.691406 42.121094 40.074219 43.839844 L 40.074219 14.777344 L 44.519531 20.421875 L 48.878906 16.992188 L 37.035156 1.941406 L 25.664062 17.039062 L 30.097656 20.375 L 34.527344 14.492188 L 34.527344 43.851562 C 21.886719 42.203125 15.542969 29.015625 14.46875 14.847656 L 18.851562 20.421875 L 23.210938 16.992188 L 11.367188 1.941406 L 0 17.039062 L 4.433594 20.375 L 8.875 14.472656 C 9.433594 23.511719 11.871094 31.644531 15.878906 37.6875 C 20.5 44.652344 26.910156 48.671875 34.527344 49.4375 L 34.527344 57.921875 L 24.417969 57.921875 L 24.417969 63.46875 L 34.527344 63.46875 L 34.527344 73.058594 L 40.074219 73.058594 L 40.074219 63.46875 L 50.078125 63.46875 L 50.078125 57.921875 L 40.074219 57.921875 L 40.074219 49.425781 C 47.648438 48.632812 54.015625 44.617188 58.613281 37.6875 C 62.605469 31.675781 65.035156 23.59375 65.609375 14.609375 L 70.183594 20.421875 L 74.542969 16.992188 " fill-opacity="1" fill-rule="nonzero"/></g></svg>