<svg xmlns="http://www.w3.org/2000/svg" xmlns:xlink="http://www.w3.org/1999/xlink" width="100" zoomAndPan="magnify" viewBox="0 0 75 74.999997" height="100" preserveAspectRatio="xMidYMid meet" version="1.0"><defs><clipPath id="6f26538c9e"><path d="M 0 2.765625 L 73.5 2.765625 L 73.5 71.015625 L 0 71.015625 Z M 0 2.765625 " clip-rule="nonzero"/></clipPath></defs><g clip-path="url(#6f26538c9e)"><path fill="#3cc221" d="M 73.832031 50.652344 C 73.78125 49.398438 73.582031 48.160156 73.242188 46.953125 C 72.910156 45.75 72.425781 44.585938 71.804688 43.484375 C 71.1875 42.386719 70.417969 41.359375 69.527344 40.441406 C 69.082031 39.984375 68.59375 39.554688 68.085938 39.167969 C 67.578125 38.777344 67.050781 38.425781 66.5 38.109375 C 65.40625 37.480469 64.238281 37 63.039062 36.667969 C 61.835938 36.34375 60.597656 36.164062 59.351562 36.144531 C 58.105469 36.125 56.851562 36.257812 55.628906 36.578125 C 55.015625 36.734375 54.417969 36.9375 53.832031 37.179688 C 53.683594 37.242188 53.539062 37.300781 53.394531 37.371094 L 52.964844 37.578125 C 52.691406 37.726562 52.414062 37.871094 52.148438 38.027344 C 51.082031 38.667969 50.128906 39.433594 49.285156 40.261719 C 48.4375 41.09375 47.699219 41.988281 47.046875 42.917969 C 46.398438 43.84375 45.828125 44.800781 45.316406 45.769531 C 44.902344 46.550781 44.535156 47.332031 44.1875 48.113281 L 44.1875 48.050781 L 44.183594 47.667969 L 44.171875 46.144531 L 44.148438 43.09375 L 44.082031 36.992188 C 44.03125 32.925781 43.972656 28.859375 43.894531 24.789062 L 43.835938 21.742188 L 43.804688 20.214844 L 43.789062 19.453125 L 43.777344 18.878906 L 43.769531 18.65625 C 43.695312 16.207031 43.070312 13.769531 41.933594 11.613281 C 41.371094 10.53125 40.683594 9.519531 39.902344 8.597656 C 39.117188 7.675781 38.226562 6.851562 37.261719 6.128906 C 36.292969 5.410156 35.253906 4.792969 34.15625 4.316406 C 33.054688 3.832031 31.90625 3.472656 30.734375 3.25 C 28.390625 2.796875 25.976562 2.898438 23.699219 3.5 C 23.558594 3.539062 23.414062 3.574219 23.273438 3.617188 L 22.851562 3.75 L 22.644531 3.816406 C 22.574219 3.839844 22.503906 3.867188 22.4375 3.894531 L 22.023438 4.046875 C 21.886719 4.097656 21.753906 4.160156 21.617188 4.214844 L 21.214844 4.390625 C 20.953125 4.519531 20.6875 4.644531 20.429688 4.78125 C 19.398438 5.328125 18.433594 5.992188 17.558594 6.75 C 16.679688 7.503906 15.890625 8.359375 15.214844 9.285156 C 14.539062 10.214844 13.960938 11.210938 13.507812 12.257812 C 13.445312 12.40625 13.382812 12.558594 13.324219 12.710938 C 12.96875 12.035156 12.558594 11.386719 12.101562 10.777344 C 11.527344 10.015625 10.886719 9.316406 10.179688 8.6875 C 8.765625 7.4375 7.125 6.476562 5.378906 5.890625 C 5.15625 5.820312 4.941406 5.742188 4.71875 5.683594 C 4.496094 5.625 4.277344 5.5625 4.050781 5.511719 L 3.71875 5.441406 C 3.605469 5.421875 3.496094 5.394531 3.382812 5.378906 C 3.15625 5.347656 2.929688 5.304688 2.707031 5.277344 C 1.800781 5.164062 0.894531 5.148438 0 5.21875 C 0.894531 5.296875 1.773438 5.453125 2.621094 5.6875 C 2.835938 5.742188 3.042969 5.816406 3.253906 5.878906 C 3.460938 5.945312 3.667969 6.027344 3.871094 6.101562 C 4.078125 6.175781 4.277344 6.269531 4.476562 6.351562 C 4.679688 6.433594 4.871094 6.535156 5.070312 6.625 C 6.621094 7.40625 8.003906 8.472656 9.121094 9.746094 C 10.238281 11.019531 11.089844 12.492188 11.628906 14.050781 C 12.019531 15.179688 12.242188 16.347656 12.304688 17.523438 C 12.285156 17.972656 12.28125 18.421875 12.300781 18.867188 C 12.261719 19.609375 12.828125 20.242188 13.566406 20.285156 C 14.308594 20.324219 14.941406 19.757812 14.984375 19.019531 L 14.992188 18.867188 C 15.042969 17.949219 15.195312 17.042969 15.441406 16.171875 C 15.6875 15.300781 16.03125 14.460938 16.457031 13.675781 C 16.886719 12.890625 17.402344 12.15625 17.984375 11.488281 C 18.273438 11.152344 18.589844 10.839844 18.910156 10.539062 C 18.992188 10.464844 19.078125 10.394531 19.160156 10.320312 C 19.242188 10.25 19.324219 10.175781 19.410156 10.105469 L 19.667969 9.902344 L 19.800781 9.800781 C 19.84375 9.769531 19.886719 9.738281 19.933594 9.707031 C 20.644531 9.191406 21.402344 8.753906 22.195312 8.40625 C 22.992188 8.054688 23.824219 7.8125 24.664062 7.652344 C 25.507812 7.492188 26.363281 7.425781 27.21875 7.457031 C 28.070312 7.484375 28.914062 7.605469 29.730469 7.820312 C 32.996094 8.65625 35.769531 11.023438 37.113281 14.003906 C 37.457031 14.742188 37.710938 15.523438 37.871094 16.3125 C 38.035156 17.109375 38.117188 17.914062 38.105469 18.726562 L 37.984375 24.792969 C 37.910156 28.859375 37.851562 32.925781 37.800781 36.996094 L 37.734375 43.097656 L 37.707031 46.144531 L 37.695312 47.671875 L 37.695312 48.15625 L 37.699219 48.273438 L 37.703125 48.503906 L 37.714844 48.96875 L 37.722656 49.203125 L 37.738281 49.433594 C 37.765625 49.738281 37.785156 50.046875 37.824219 50.355469 C 37.863281 50.660156 37.910156 50.964844 37.953125 51.269531 C 38.007812 51.574219 38.074219 51.875 38.136719 52.175781 C 38.152344 52.25 38.167969 52.328125 38.183594 52.402344 L 38.359375 53.070312 C 38.683594 54.25 39.121094 55.398438 39.652344 56.492188 C 39.789062 56.773438 39.933594 57.050781 40.082031 57.324219 C 39.695312 58 39.265625 58.652344 38.816406 59.289062 C 38.542969 59.679688 38.246094 60.054688 37.953125 60.4375 L 37.492188 60.988281 L 37.378906 61.128906 L 37.257812 61.261719 L 37.015625 61.53125 C 35.738281 62.964844 34.277344 64.261719 32.699219 65.410156 C 31.90625 65.980469 31.082031 66.511719 30.234375 67.007812 C 29.386719 67.5 28.503906 67.941406 27.601562 68.347656 C 23.992188 69.964844 19.996094 70.84375 15.914062 70.800781 C 16.917969 70.976562 17.9375 71.085938 18.964844 71.136719 L 19.738281 71.164062 C 19.996094 71.167969 20.253906 71.164062 20.511719 71.164062 C 20.769531 71.164062 21.027344 71.148438 21.285156 71.136719 L 21.671875 71.121094 C 21.804688 71.113281 21.929688 71.101562 22.0625 71.09375 C 22.320312 71.070312 22.578125 71.058594 22.835938 71.027344 L 23.609375 70.9375 C 24.121094 70.859375 24.640625 70.785156 25.148438 70.683594 L 25.535156 70.609375 C 25.660156 70.585938 25.789062 70.554688 25.914062 70.527344 C 26.167969 70.46875 26.425781 70.414062 26.679688 70.347656 L 27.4375 70.148438 C 27.691406 70.078125 27.941406 70 28.191406 69.925781 C 29.191406 69.613281 30.179688 69.25 31.148438 68.828125 C 32.113281 68.40625 33.058594 67.929688 33.980469 67.410156 C 34.902344 66.878906 35.792969 66.300781 36.65625 65.675781 L 37.296875 65.195312 L 37.925781 64.695312 L 38.082031 64.570312 L 38.234375 64.4375 L 38.84375 63.914062 L 39.136719 63.640625 L 39.433594 63.367188 L 39.582031 63.226562 L 39.722656 63.085938 L 40.296875 62.515625 C 40.664062 62.121094 41.035156 61.730469 41.386719 61.316406 C 41.648438 61.011719 41.902344 60.703125 42.152344 60.382812 C 42.707031 61.0625 43.300781 61.703125 43.933594 62.308594 C 44.804688 63.144531 45.765625 63.894531 46.78125 64.5625 C 47.800781 65.226562 48.882812 65.804688 50.015625 66.273438 C 52.285156 67.222656 54.78125 67.703125 57.289062 67.65625 L 58.226562 67.613281 C 58.535156 67.582031 58.847656 67.546875 59.160156 67.515625 C 59.3125 67.5 59.46875 67.472656 59.621094 67.445312 L 60.085938 67.363281 L 60.316406 67.324219 C 60.390625 67.308594 60.46875 67.296875 60.546875 67.277344 L 61.007812 67.164062 C 62.234375 66.859375 63.417969 66.425781 64.539062 65.871094 C 65.652344 65.308594 66.703125 64.632812 67.671875 63.855469 C 67.914062 63.65625 68.160156 63.464844 68.386719 63.25 L 68.730469 62.933594 C 68.84375 62.828125 68.960938 62.726562 69.066406 62.609375 L 69.710938 61.933594 L 70.316406 61.21875 C 71.097656 60.242188 71.78125 59.175781 72.328125 58.03125 L 72.527344 57.597656 L 72.625 57.378906 C 72.65625 57.308594 72.683594 57.230469 72.710938 57.15625 C 72.824219 56.859375 72.941406 56.5625 73.046875 56.261719 C 73.253906 55.65625 73.414062 55.035156 73.539062 54.410156 C 73.664062 53.789062 73.75 53.160156 73.800781 52.53125 C 73.851562 51.90625 73.859375 51.277344 73.832031 50.652344 Z M 67.65625 52 C 67.617188 52.382812 67.550781 52.761719 67.46875 53.132812 C 67.382812 53.503906 67.277344 53.867188 67.148438 54.222656 L 66.929688 54.746094 C 66.910156 54.792969 66.898438 54.835938 66.875 54.878906 L 66.8125 55.007812 L 66.683594 55.265625 C 66.332031 55.945312 65.902344 56.597656 65.402344 57.195312 C 65.269531 57.34375 65.140625 57.488281 65.015625 57.636719 C 64.875 57.777344 64.734375 57.914062 64.597656 58.054688 C 64.53125 58.128906 64.453125 58.1875 64.378906 58.253906 L 64.15625 58.449219 C 64.015625 58.585938 63.851562 58.699219 63.695312 58.824219 C 63.070312 59.304688 62.398438 59.726562 61.691406 60.070312 C 60.980469 60.40625 60.242188 60.660156 59.492188 60.835938 L 59.210938 60.902344 C 59.164062 60.914062 59.117188 60.921875 59.066406 60.929688 L 58.632812 61 C 58.535156 61.015625 58.441406 61.035156 58.339844 61.039062 L 57.757812 61.097656 C 57.5625 61.105469 57.367188 61.109375 57.171875 61.117188 C 56.390625 61.125 55.605469 61.050781 54.832031 60.898438 C 54.058594 60.738281 53.289062 60.515625 52.546875 60.199219 C 51.066406 59.574219 49.671875 58.660156 48.472656 57.527344 C 47.464844 56.570312 46.59375 55.464844 45.90625 54.265625 C 46.085938 53.910156 46.265625 53.554688 46.441406 53.199219 C 47.355469 51.371094 48.222656 49.585938 49.214844 47.992188 C 49.710938 47.195312 50.238281 46.433594 50.800781 45.730469 C 50.945312 45.554688 51.089844 45.386719 51.234375 45.21875 C 51.386719 45.054688 51.53125 44.886719 51.683594 44.730469 C 51.988281 44.414062 52.296875 44.109375 52.617188 43.832031 C 53.257812 43.277344 53.9375 42.808594 54.640625 42.441406 C 54.816406 42.351562 55 42.269531 55.175781 42.183594 L 55.4375 42.074219 C 55.527344 42.039062 55.617188 42.007812 55.707031 41.976562 C 56.070312 41.847656 56.441406 41.75 56.820312 41.671875 C 57.199219 41.597656 57.585938 41.550781 57.976562 41.527344 C 58.367188 41.503906 58.761719 41.507812 59.152344 41.53125 C 59.941406 41.585938 60.722656 41.742188 61.472656 41.984375 C 62.21875 42.234375 62.9375 42.566406 63.585938 42.980469 C 64.234375 43.398438 64.8125 43.882812 65.3125 44.441406 C 65.816406 45.003906 66.257812 45.632812 66.605469 46.324219 C 66.957031 47.011719 67.234375 47.746094 67.417969 48.511719 C 67.601562 49.269531 67.703125 50.054688 67.707031 50.835938 C 67.714844 51.226562 67.695312 51.613281 67.65625 52 Z M 67.65625 52 " fill-opacity="1" fill-rule="nonzero"/></g></svg>