<svg xmlns="http://www.w3.org/2000/svg" xmlns:xlink="http://www.w3.org/1999/xlink" width="100" zoomAndPan="magnify" viewBox="0 0 75 74.999997" height="100" preserveAspectRatio="xMidYMid meet" version="1.0"><defs><clipPath id="08be5950a8"><path d="M 9.070312 14 L 67.570312 14 L 67.570312 75 L 9.070312 75 Z M 9.070312 14 " clip-rule="nonzero"/></clipPath></defs><path fill="#8d3b0c" d="M 38.273438 6 C 38.277344 6 38.28125 6 38.285156 6 C 40.46875 6 42.523438 6.855469 44.066406 8.402344 C 45.609375 9.949219 46.457031 12.003906 46.453125 14.1875 C 46.449219 16.371094 45.597656 18.425781 44.050781 19.96875 C 42.503906 21.507812 40.453125 22.355469 38.273438 22.355469 C 38.269531 22.355469 38.265625 22.355469 38.261719 22.355469 C 36.078125 22.351562 34.023438 21.5 32.480469 19.953125 C 30.941406 18.40625 30.09375 16.351562 30.09375 14.167969 C 30.101562 9.660156 33.769531 6 38.273438 6 Z M 38.253906 28.355469 C 38.261719 28.355469 38.265625 28.355469 38.273438 28.355469 C 46.082031 28.355469 52.441406 22.007812 52.449219 14.195312 C 52.457031 10.410156 50.984375 6.847656 48.3125 4.167969 C 45.636719 1.484375 42.082031 0.00390625 38.292969 0 C 38.285156 0 38.28125 0 38.273438 0 C 30.464844 0 24.109375 6.347656 24.097656 14.15625 C 24.089844 17.945312 25.5625 21.507812 28.234375 24.1875 C 30.910156 26.867188 34.46875 28.347656 38.253906 28.355469 " fill-opacity="1" fill-rule="nonzero"/><g clip-path="url(#08be5950a8)"><path fill="#8d3b0c" d="M 67.449219 14.085938 L 61.449219 14.085938 C 61.449219 26.867188 51.050781 37.261719 38.273438 37.261719 C 25.496094 37.261719 15.097656 26.867188 15.097656 14.085938 L 9.097656 14.085938 C 9.097656 29.160156 20.589844 41.601562 35.273438 43.109375 L 35.273438 55.492188 L 21.859375 55.492188 L 21.859375 61.492188 L 35.273438 61.492188 L 35.273438 74.90625 L 41.273438 74.90625 L 41.273438 61.492188 L 54.6875 61.492188 L 54.6875 55.492188 L 41.273438 55.492188 L 41.273438 43.109375 C 55.957031 41.601562 67.449219 29.160156 67.449219 14.085938 " fill-opacity="1" fill-rule="nonzero"/></g></svg>