<svg xmlns="http://www.w3.org/2000/svg" xmlns:xlink="http://www.w3.org/1999/xlink" width="100" zoomAndPan="magnify" viewBox="0 0 75 74.999997" height="100" preserveAspectRatio="xMidYMid meet" version="1.0"><defs><clipPath id="829f2fdca7"><path d="M 2 2 L 73 2 L 73 73 L 2 73 Z M 2 2 " clip-rule="nonzero"/></clipPath><clipPath id="9125e4be7d"><path d="M 37.496094 -12.066406 L 86.816406 37.253906 L 37.496094 86.578125 L -11.824219 37.253906 Z M 37.496094 -12.066406 " clip-rule="nonzero"/></clipPath><clipPath id="ca95ee6812"><path d="M 37.496094 -12.066406 L 86.816406 37.253906 L 37.496094 86.578125 L -11.824219 37.253906 Z M 37.496094 -12.066406 " clip-rule="nonzero"/></clipPath><clipPath id="2eb505f7bc"><path d="M 37.496094 -12.066406 L 86.816406 37.253906 L 37.496094 86.578125 L -11.824219 37.253906 Z M 37.496094 -12.066406 " clip-rule="nonzero"/></clipPath></defs><g clip-path="url(#829f2fdca7)"><g clip-path="url(#9125e4be7d)"><g clip-path="url(#ca95ee6812)"><g clip-path="url(#2eb505f7bc)"><path fill="#111010" d="M 18.976562 59.769531 L 37.449219 41.292969 L 55.96875 59.816406 C 45.308594 68.566406 29.738281 68.621094 18.976562 59.769531 Z M 14.9375 18.78125 L 33.402344 37.25 L 14.929688 55.722656 C 6.179688 45.0625 6.183594 29.445312 14.9375 18.78125 Z M 55.964844 14.691406 L 37.449219 33.207031 L 18.980469 14.738281 C 29.742188 5.882812 45.304688 5.9375 55.964844 14.691406 Z M 60.011719 55.769531 L 41.492188 37.25 L 60.007812 18.734375 C 68.863281 29.496094 68.867188 45.007812 60.011719 55.769531 Z M 72.371094 37.253906 C 72.371094 27.941406 68.742188 19.183594 62.15625 12.59375 C 55.570312 6.007812 46.8125 2.378906 37.496094 2.378906 C 28.179688 2.378906 19.421875 6.007812 12.835938 12.59375 C 6.25 19.183594 2.621094 27.941406 2.621094 37.253906 C 2.621094 46.570312 6.25 55.328125 12.835938 61.914062 C 19.421875 68.503906 28.179688 72.128906 37.496094 72.128906 C 46.8125 72.128906 55.570312 68.503906 62.15625 61.914062 C 68.742188 55.328125 72.371094 46.570312 72.371094 37.253906 " fill-opacity="1" fill-rule="nonzero"/></g></g></g></g></svg>