<svg xmlns="http://www.w3.org/2000/svg" xmlns:xlink="http://www.w3.org/1999/xlink" width="100" zoomAndPan="magnify" viewBox="0 0 75 74.999997" height="100" preserveAspectRatio="xMidYMid meet" version="1.0"><defs><clipPath id="90358780ae"><path d="M 11.535156 0 L 57 0 L 57 75 L 11.535156 75 Z M 11.535156 0 " clip-rule="nonzero"/></clipPath></defs><g clip-path="url(#90358780ae)"><path fill="#8d3b0c" d="M 47.835938 55.226562 C 48.636719 53.832031 49.550781 52.484375 50.519531 51.058594 C 52.648438 47.925781 54.851562 44.6875 55.902344 40.730469 C 57.703125 33.964844 55.378906 25.847656 50.375 21.425781 C 45.410156 17.039062 38.246094 16.105469 31.675781 18.988281 C 29.816406 19.804688 28.019531 20.980469 26.363281 22.433594 L 26.363281 12.695312 L 35.265625 12.695312 L 35.265625 6.695312 L 26.363281 6.695312 L 26.363281 0 L 20.363281 0 L 20.363281 6.695312 L 11.527344 6.695312 L 11.527344 12.695312 L 20.363281 12.695312 L 20.363281 55.773438 L 26.363281 55.773438 L 26.363281 31.75 C 28.347656 28.414062 31.136719 25.78125 34.089844 24.484375 C 38.492188 22.550781 43.210938 23.101562 46.402344 25.921875 C 49.742188 28.871094 51.332031 34.574219 50.105469 39.1875 C 49.316406 42.15625 47.492188 44.839844 45.558594 47.683594 C 44.566406 49.140625 43.542969 50.648438 42.628906 52.242188 C 42.414062 52.621094 42.15625 53.050781 41.871094 53.527344 C 40.496094 55.828125 38.613281 58.972656 37.546875 62.214844 C 35.609375 68.101562 37.503906 71.308594 39.4375 72.960938 C 40.984375 74.289062 43.0625 75 45.296875 75 C 45.820312 75 46.351562 74.960938 46.886719 74.878906 C 49.78125 74.453125 52.339844 72.898438 53.734375 70.71875 C 54.945312 68.832031 55.59375 66.402344 55.558594 63.878906 L 49.558594 63.953125 C 49.578125 65.300781 49.257812 66.585938 48.683594 67.484375 C 48.226562 68.199219 47.175781 68.773438 46.007812 68.945312 C 44.9375 69.105469 43.914062 68.894531 43.335938 68.402344 C 41.109375 66.496094 45.402344 59.3125 47.019531 56.609375 C 47.328125 56.09375 47.601562 55.628906 47.835938 55.226562 " fill-opacity="1" fill-rule="nonzero"/></g></svg>