<svg xmlns="http://www.w3.org/2000/svg" xmlns:xlink="http://www.w3.org/1999/xlink" width="100" zoomAndPan="magnify" viewBox="0 0 75 74.999997" height="100" preserveAspectRatio="xMidYMid meet" version="1.0"><path fill="#09babf" d="M 0.0351562 48.71875 C 8.136719 48.199219 16.238281 47.691406 24.34375 47.195312 C 18.058594 41.410156 15.644531 33.660156 19.308594 24.773438 C 29.523438 0.00390625 69.886719 17.25 55.769531 42.054688 C 54.480469 44.316406 53.175781 45.800781 51.644531 47.160156 L 75.972656 48.71875 L 46.691406 50.59375 C 41.714844 49.976562 47.835938 44.96875 48.042969 44.730469 C 67.273438 22.667969 32.015625 6.824219 23.84375 26.640625 C 17.6875 41.578125 34.753906 47.171875 30.597656 50.28125 C 29.445312 51.144531 3.773438 48.957031 0.0351562 48.71875 Z M 0.324219 68.167969 L 9.949219 66.910156 C 24.011719 65.074219 37.53125 65.714844 51.738281 65.714844 C 59.695312 65.714844 67.570312 67.140625 75.441406 68.167969 C 67.570312 69.195312 59.695312 70.621094 51.738281 70.621094 C 37.53125 70.621094 24.011719 71.261719 9.949219 69.425781 Z M 0.324219 68.167969 " fill-opacity="1" fill-rule="evenodd"/></svg>