<svg xmlns="http://www.w3.org/2000/svg" xmlns:xlink="http://www.w3.org/1999/xlink" width="100" zoomAndPan="magnify" viewBox="0 0 75 74.999997" height="100" preserveAspectRatio="xMidYMid meet" version="1.0"><defs><clipPath id="341549b9e9"><path d="M 4.03125 0 L 67.78125 0 L 67.78125 75 L 4.03125 75 Z M 4.03125 0 " clip-rule="nonzero"/></clipPath></defs><g clip-path="url(#341549b9e9)"><path fill="#223db2" d="M 36.007812 0.289062 C 35.628906 0.292969 35.265625 0.375 34.917969 0.523438 C 34.566406 0.675781 34.261719 0.886719 34 1.15625 C 33.734375 1.429688 33.53125 1.742188 33.394531 2.09375 C 33.253906 2.449219 33.1875 2.8125 33.191406 3.191406 L 33.191406 23.207031 L 27.238281 23.207031 C 26.089844 12.027344 18.410156 2.828125 8.109375 0.410156 C 7.925781 0.363281 7.742188 0.332031 7.550781 0.324219 C 7.191406 0.304688 6.84375 0.355469 6.503906 0.46875 C 6.164062 0.582031 5.855469 0.757812 5.582031 0.988281 C 5.308594 1.21875 5.082031 1.488281 4.910156 1.804688 C 4.738281 2.117188 4.628906 2.453125 4.582031 2.808594 C 4.535156 3.164062 4.554688 3.515625 4.640625 3.863281 C 4.726562 4.210938 4.875 4.535156 5.082031 4.828125 C 5.289062 5.121094 5.539062 5.363281 5.839844 5.5625 C 6.140625 5.761719 6.464844 5.898438 6.8125 5.972656 C 15.25 7.949219 21.757812 16.101562 21.757812 26.0625 C 21.757812 36.027344 15.25 44.175781 6.8125 46.15625 C 6.429688 46.222656 6.070312 46.367188 5.742188 46.582031 C 5.414062 46.796875 5.144531 47.070312 4.925781 47.394531 C 4.710938 47.722656 4.570312 48.082031 4.5 48.464844 C 4.429688 48.851562 4.441406 49.238281 4.53125 49.617188 C 4.617188 50 4.78125 50.351562 5.011719 50.664062 C 5.246094 50.980469 5.53125 51.238281 5.867188 51.4375 C 6.207031 51.636719 6.570312 51.757812 6.960938 51.808594 C 7.351562 51.855469 7.734375 51.824219 8.109375 51.714844 C 18.410156 49.300781 26.089844 40.101562 27.238281 28.921875 L 33.191406 28.921875 L 33.191406 58.046875 C 29.882812 59.242188 27.476562 62.390625 27.476562 66.089844 C 27.476562 70.792969 31.347656 74.667969 36.050781 74.667969 C 40.753906 74.667969 44.628906 70.792969 44.628906 66.089844 C 44.628906 62.390625 42.222656 59.242188 38.910156 58.046875 L 38.910156 28.921875 L 44.863281 28.921875 C 46.015625 40.101562 53.691406 49.300781 63.992188 51.714844 C 64.371094 51.824219 64.753906 51.855469 65.140625 51.808594 C 65.53125 51.757812 65.894531 51.636719 66.234375 51.4375 C 66.574219 51.238281 66.859375 50.980469 67.089844 50.664062 C 67.324219 50.351562 67.484375 50 67.574219 49.617188 C 67.664062 49.238281 67.671875 48.851562 67.601562 48.464844 C 67.535156 48.082031 67.390625 47.722656 67.175781 47.394531 C 66.960938 47.070312 66.6875 46.796875 66.359375 46.582031 C 66.03125 46.367188 65.675781 46.222656 65.289062 46.15625 C 56.851562 44.175781 50.347656 36.027344 50.347656 26.0625 C 50.347656 16.101562 56.851562 7.949219 65.289062 5.972656 C 65.628906 5.898438 65.945312 5.765625 66.238281 5.574219 C 66.53125 5.382812 66.78125 5.148438 66.984375 4.863281 C 67.191406 4.582031 67.339844 4.273438 67.433594 3.9375 C 67.523438 3.601562 67.554688 3.257812 67.523438 2.910156 C 67.488281 2.5625 67.394531 2.234375 67.242188 1.917969 C 67.085938 1.605469 66.882812 1.332031 66.628906 1.089844 C 66.371094 0.851562 66.082031 0.667969 65.761719 0.535156 C 65.4375 0.402344 65.101562 0.332031 64.753906 0.324219 C 64.496094 0.316406 64.242188 0.347656 63.992188 0.410156 C 53.691406 2.828125 46.015625 12.027344 44.863281 23.207031 L 38.910156 23.207031 L 38.910156 3.191406 C 38.917969 2.804688 38.847656 2.433594 38.703125 2.074219 C 38.554688 1.714844 38.347656 1.398438 38.074219 1.125 C 37.800781 0.851562 37.484375 0.644531 37.125 0.496094 C 36.765625 0.351562 36.394531 0.28125 36.007812 0.289062 Z M 35.871094 63.265625 C 35.992188 63.273438 36.109375 63.273438 36.230469 63.265625 C 37.75 63.355469 38.910156 64.539062 38.910156 66.089844 C 38.910156 67.703125 37.664062 68.949219 36.050781 68.949219 C 34.4375 68.949219 33.191406 67.703125 33.191406 66.089844 C 33.191406 64.539062 34.351562 63.355469 35.871094 63.265625 Z M 35.871094 63.265625 " fill-opacity="1" fill-rule="nonzero"/></g></svg>