<svg xmlns="http://www.w3.org/2000/svg" xmlns:xlink="http://www.w3.org/1999/xlink" width="100" zoomAndPan="magnify" viewBox="0 0 75 74.999997" height="100" preserveAspectRatio="xMidYMid meet" version="1.0"><defs><clipPath id="cbcd7cd15a"><path d="M 13.328125 0 L 61.328125 0 L 61.328125 75 L 13.328125 75 Z M 13.328125 0 " clip-rule="nonzero"/></clipPath></defs><g clip-path="url(#cbcd7cd15a)"><path fill="#168b8b" d="M 52.476562 63.53125 L 41.003906 63.53125 L 41.003906 75.003906 L 34.164062 75.003906 L 34.164062 63.53125 L 22.640625 63.53125 L 22.640625 56.636719 L 34.164062 56.636719 L 34.164062 47.324219 C 31.28125 46.910156 28.570312 46.011719 26.035156 44.621094 C 23.5 43.234375 21.285156 41.492188 19.402344 39.402344 C 17.515625 37.308594 16.03125 34.925781 14.953125 32.25 C 13.875 29.574219 13.332031 26.746094 13.332031 23.761719 C 13.332031 20.503906 13.976562 17.429688 15.261719 14.550781 C 16.546875 11.671875 18.285156 9.152344 20.484375 6.992188 C 22.675781 4.832031 25.242188 3.125 28.175781 1.871094 C 31.101562 0.625 34.199219 0 37.457031 0 C 40.710938 0 43.808594 0.625 46.742188 1.875 C 49.675781 3.128906 52.246094 4.832031 54.460938 6.996094 C 56.671875 9.15625 58.429688 11.675781 59.730469 14.554688 C 61.035156 17.433594 61.683594 20.507812 61.683594 23.761719 C 61.683594 26.746094 61.144531 29.570312 60.066406 32.226562 C 58.988281 34.882812 57.511719 37.257812 55.640625 39.351562 C 53.773438 41.445312 51.582031 43.183594 49.082031 44.574219 C 46.578125 45.960938 43.882812 46.863281 41.003906 47.273438 L 41.003906 56.636719 L 52.476562 56.636719 Z M 20.53125 23.765625 C 20.53125 26.238281 20.96875 28.519531 21.84375 30.609375 C 22.71875 32.703125 23.917969 34.515625 25.445312 36.0625 C 26.972656 37.601562 28.761719 38.804688 30.820312 39.664062 C 32.878906 40.523438 35.089844 40.949219 37.457031 40.949219 C 39.820312 40.949219 42.042969 40.523438 44.117188 39.664062 C 46.195312 38.804688 47.996094 37.605469 49.519531 36.0625 C 51.046875 34.515625 52.253906 32.703125 53.144531 30.609375 C 54.035156 28.515625 54.484375 26.234375 54.484375 23.765625 C 54.484375 21.300781 54.039062 19.019531 53.144531 16.925781 C 52.253906 14.832031 51.046875 13.015625 49.519531 11.472656 C 47.992188 9.925781 46.191406 8.726562 44.117188 7.871094 C 42.042969 7.011719 39.824219 6.585938 37.457031 6.585938 C 35.089844 6.585938 32.878906 7.015625 30.820312 7.871094 C 28.761719 8.726562 26.96875 9.925781 25.445312 11.472656 C 23.917969 13.015625 22.71875 14.832031 21.84375 16.925781 C 20.96875 19.019531 20.53125 21.300781 20.53125 23.765625 Z M 20.53125 23.765625 " fill-opacity="1" fill-rule="nonzero"/></g></svg>