<svg xmlns="http://www.w3.org/2000/svg" xmlns:xlink="http://www.w3.org/1999/xlink" width="100" zoomAndPan="magnify" viewBox="0 0 75 74.999997" height="100" preserveAspectRatio="xMidYMid meet" version="1.0"><defs><clipPath id="e4304ed267"><path d="M 1.3125 40 L 74 40 L 74 75 L 1.3125 75 Z M 1.3125 40 " clip-rule="nonzero"/></clipPath></defs><path fill="#000000" d="M 37.6875 56.191406 C 38.539062 56.191406 39.230469 55.863281 39.765625 55.203125 L 54.453125 37.175781 L 50.292969 33.820312 L 37.6875 49.296875 L 25.082031 33.820312 L 20.921875 37.175781 L 35.609375 55.203125 C 36.144531 55.863281 36.835938 56.191406 37.6875 56.191406 Z M 37.6875 56.191406 " fill-opacity="1" fill-rule="nonzero"/><g clip-path="url(#e4304ed267)"><path fill="#000000" d="M 61.488281 40.25 C 60.636719 40.25 59.941406 40.582031 59.40625 41.246094 L 37.6875 68.085938 L 15.96875 41.246094 C 15.433594 40.582031 14.738281 40.25 13.886719 40.25 L 1.542969 40.25 L 1.542969 45.578125 L 12.601562 45.578125 L 35.601562 74.003906 C 35.726562 74.160156 35.871094 74.296875 36.027344 74.417969 C 36.183594 74.542969 36.351562 74.644531 36.535156 74.730469 C 36.714844 74.816406 36.902344 74.878906 37.097656 74.921875 C 37.289062 74.964844 37.488281 74.988281 37.6875 74.988281 C 37.886719 74.988281 38.085938 74.964844 38.277344 74.921875 C 38.472656 74.878906 38.660156 74.816406 38.839844 74.730469 C 39.023438 74.644531 39.191406 74.542969 39.347656 74.417969 C 39.503906 74.296875 39.648438 74.160156 39.773438 74.003906 L 62.773438 45.578125 L 73.832031 45.578125 L 73.832031 40.25 Z M 61.488281 40.25 " fill-opacity="1" fill-rule="nonzero"/></g><path fill="#000000" d="M 34.886719 19.695312 C 39.226562 23.070312 39.058594 26.792969 35.496094 31.851562 L 39.878906 34.914062 C 45.175781 27.773438 44.5625 20.410156 38.476562 15.742188 C 33.28125 11.984375 36.050781 7.613281 39.664062 3.605469 L 35.710938 0.0117188 C 28.945312 7.09375 28.242188 14.589844 34.886719 19.695312 Z M 34.886719 19.695312 " fill-opacity="1" fill-rule="nonzero"/></svg>