<svg xmlns="http://www.w3.org/2000/svg" xmlns:xlink="http://www.w3.org/1999/xlink" width="100" zoomAndPan="magnify" viewBox="0 0 75 74.999997" height="100" preserveAspectRatio="xMidYMid meet" version="1.0"><path fill="#c81c1c" d="M 44.648438 64.414062 C 43.980469 63.457031 43.300781 62.519531 42.605469 61.59375 C 41.210938 59.746094 39.769531 57.949219 38.285156 56.195312 C 36.804688 54.4375 35.277344 52.722656 33.722656 51.035156 C 32.828125 50.070312 31.921875 49.113281 31.003906 48.167969 L 33.4375 46.039062 L 35.507812 44.199219 L 37.566406 42.347656 C 40.296875 39.867188 43.066406 37.421875 45.800781 34.941406 L 47.839844 33.070312 C 48.515625 32.441406 49.1875 31.8125 49.855469 31.175781 C 51.191406 29.902344 52.507812 28.613281 53.816406 27.316406 L 55.78125 25.371094 C 56.4375 24.722656 57.09375 24.078125 57.742188 23.421875 C 59.035156 22.109375 64.378906 16.6875 64.519531 17.347656 L 69.226562 39.90625 C 69.363281 40.546875 70.296875 40.484375 70.34375 39.832031 L 72.605469 8.847656 L 72.929688 3.675781 C 72.988281 2.738281 72.210938 1.960938 71.273438 2.023438 L 66.089844 2.347656 L 35.1875 4.683594 C 34.539062 4.734375 34.476562 5.667969 35.117188 5.796875 L 57.738281 10.480469 C 58.398438 10.617188 52.925781 16.003906 51.613281 17.296875 C 50.957031 17.941406 50.308594 18.597656 49.664062 19.253906 L 47.71875 21.222656 C 46.417969 22.527344 45.128906 23.847656 43.859375 25.179688 C 43.222656 25.847656 42.59375 26.523438 41.964844 27.195312 L 40.09375 29.234375 C 37.613281 31.972656 35.167969 34.738281 32.6875 37.472656 L 30.832031 39.527344 L 28.992188 41.601562 L 26.863281 44.035156 C 25.914062 43.117188 24.960938 42.210938 23.992188 41.320312 C 22.308594 39.761719 20.59375 38.238281 18.835938 36.757812 C 17.082031 35.273438 15.28125 33.828125 13.433594 32.4375 C 12.511719 31.738281 11.574219 31.058594 10.617188 30.390625 C 10.171875 30.082031 9.722656 29.777344 9.265625 29.476562 C 8.882812 29.222656 8.429688 29.675781 8.683594 30.058594 C 8.984375 30.511719 9.292969 30.960938 9.601562 31.410156 C 10.265625 32.363281 10.949219 33.300781 11.644531 34.226562 C 13.039062 36.074219 14.480469 37.871094 15.964844 39.625 C 17.449219 41.382812 18.972656 43.101562 20.527344 44.785156 C 21.5 45.835938 22.484375 46.871094 23.480469 47.898438 C 21.660156 49.960938 19.824219 52.011719 17.960938 54.027344 L 14.191406 58.082031 L 12.292969 60.09375 L 11.34375 61.101562 L 10.390625 62.101562 C 7.84375 64.769531 5.28125 67.417969 2.660156 70.015625 L 2.648438 70.027344 C 2.007812 70.675781 2.003906 71.714844 2.636719 72.367188 C 3.292969 73.039062 4.386719 73.015625 5.046875 72.351562 C 7.632812 69.738281 10.273438 67.183594 12.933594 64.648438 L 13.933594 63.691406 L 14.941406 62.742188 L 16.953125 60.847656 L 21.007812 57.078125 C 23.023438 55.214844 25.070312 53.378906 27.136719 51.558594 C 28.160156 52.554688 29.195312 53.539062 30.246094 54.511719 C 31.929688 56.066406 33.644531 57.59375 35.402344 59.074219 C 37.160156 60.558594 38.957031 62.003906 40.804688 63.394531 C 41.730469 64.089844 42.667969 64.773438 43.621094 65.4375 C 44.074219 65.75 44.527344 66.058594 44.984375 66.359375 C 45.367188 66.613281 45.820312 66.160156 45.566406 65.777344 C 45.265625 65.316406 44.957031 64.863281 44.648438 64.414062 Z M 44.648438 64.414062 " fill-opacity="1" fill-rule="nonzero"/></svg>