<svg xmlns="http://www.w3.org/2000/svg" xmlns:xlink="http://www.w3.org/1999/xlink" width="100" zoomAndPan="magnify" viewBox="0 0 75 74.999997" height="100" preserveAspectRatio="xMidYMid meet" version="1.0"><path fill="#7e32df" d="M 13.71875 19.125 C 24.460938 9.980469 40.054688 23.367188 35.148438 35.820312 C 28.375 50.363281 9.640625 47.554688 4.351562 33.339844 C 0 21.550781 8.761719 12.183594 18.511719 7.058594 C 28.042969 2.046875 39.503906 0.0078125 49.859375 3.367188 C 58.289062 5.957031 66.113281 12.734375 67.378906 21.714844 C 62.585938 10.421875 49.472656 5.902344 38.015625 7.5 C 27.988281 8.601562 6.667969 18.191406 11.183594 30.859375 C 13.554688 37.914062 22.039062 41.878906 28.042969 36.316406 C 32.230469 33.066406 32.007812 27.058594 28.980469 22.871094 C 25.730469 18.023438 19.171875 16.371094 13.71875 19.125 Z M 13.71875 19.125 " fill-opacity="1" fill-rule="nonzero"/><path fill="#7e32df" d="M 62.421875 55.875 C 51.734375 64.964844 36.085938 51.632812 41.046875 39.179688 C 47.820312 24.582031 66.554688 27.445312 71.84375 41.660156 C 76.195312 53.449219 67.433594 62.816406 57.628906 67.941406 C 48.152344 72.953125 36.691406 74.992188 26.335938 71.628906 C 17.90625 69.042969 10.136719 62.265625 8.816406 53.285156 C 13.554688 64.578125 26.71875 69.097656 38.179688 67.5 C 48.207031 66.398438 69.527344 56.808594 65.011719 44.140625 C 62.640625 37.085938 54.15625 33.121094 48.152344 38.683594 C 43.964844 41.933594 44.1875 47.886719 47.214844 52.074219 C 50.464844 56.976562 57.023438 58.628906 62.421875 55.875 Z M 62.421875 55.875 " fill-opacity="1" fill-rule="nonzero"/></svg>